<svg xmlns="http://www.w3.org/2000/svg" viewBox="0 0 341.37 337.43"><defs><style>.cls-1{fill:#252f9c;}</style></defs><g id="Layer_2" data-name="Layer 2"><g id="Layer_1-2" data-name="Layer 1"><path class="cls-1" d="M248.82,225.49l10.86-32.89c3.8-11.52,2.12-18.11-9.42-18.14-12.58,0-17.55,6.54-21.35,18-9.28,28.1,31.12,42.15,46.56,74L289,225.6Z"/><path class="cls-1" d="M126.14,327.87l14.33-43.42,58,.16-13.36,40.46-.06.17c-2.2,6.72,1.85,12.16,9,12.18h4.73c7.15,0,14.8-5.38,17-12.11l.06-.17c17.48-52.95-71-54.19-46-129.84,14-42.44,49-58.47,93.79-58.34,21.44.06,39.86,3.86,50,13.71l27.66-83.79h-.66c-25-.07-43.8-12.61-50.24-32.69C283.91,13.76,264.48.08,237.18,0s-55.72,13.47-75.74,33.84c-19.68,20-46.73,32.41-71.72,32.34h-.66l-.35,1.07L.05,335.8h0a.77.77,0,0,0,.79,1.07l112.38.32c5.41,0,11.21-4.14,12.88-9.23ZM230.73,19.54c29,.08,45.79,21.36,38.86,48.22l-109.45-.31C170.94,40.6,201.7,19.46,230.73,19.54Z"/></g></g></svg>